<?xml version="1.0" encoding="UTF-8"?> <svg xmlns="http://www.w3.org/2000/svg" width="174.797" height="79.167" viewBox="0 0 174.797 79.167"><g id="_Main_Logo" data-name=" Main Logo" transform="translate(-37.539 -34.867)"><g id="Groupe_2" data-name="Groupe 2" transform="translate(123.431 34.867)"><path id="Tracé_64" data-name="Tracé 64" d="M420.6,51.873l4.052,1.573a11.4,11.4,0,0,1-3.156,6.215,7.88,7.88,0,0,1-5.431,1.962,8.032,8.032,0,0,1-6.569-3.129q-2.9-3.613-2.9-9.751,0-6.483,2.917-10.148a8.269,8.269,0,0,1,6.818-3.181,7.853,7.853,0,0,1,5.833,2.386,10.36,10.36,0,0,1,2.451,5.031l-4.138,1.21a5.616,5.616,0,0,0-1.581-3.155,3.967,3.967,0,0,0-2.789-1.1,4.439,4.439,0,0,0-3.749,2.005q-1.45,2.006-1.451,6.621,0,4.789,1.414,6.812A4.3,4.3,0,0,0,416,57.25a3.794,3.794,0,0,0,2.862-1.288A8.178,8.178,0,0,0,420.6,51.873Z" transform="translate(-406.6 -35.287)" fill="#00539f"></path><path id="Tracé_65" data-name="Tracé 65" d="M495.879,48.236a18.274,18.274,0,0,1,1.336-7.511,10.145,10.145,0,0,1,3.492-4.395,9.168,9.168,0,0,1,5.225-1.445,8.932,8.932,0,0,1,7.251,3.429q2.8,3.429,2.8,9.765,0,6.406-2.966,10.009a9.511,9.511,0,0,1-14.174.035Q495.879,54.52,495.879,48.236Zm4.311-.174q0,4.4,1.658,6.605a4.976,4.976,0,0,0,4.11,2.2,4.914,4.914,0,0,0,4.093-2.184q1.623-2.184,1.623-6.71,0-4.439-1.58-6.562a4.921,4.921,0,0,0-4.136-2.123,4.975,4.975,0,0,0-4.162,2.141Q500.189,43.572,500.19,48.062Z" transform="translate(-475.101 -34.882)" fill="#00539f"></path><path id="Tracé_66" data-name="Tracé 66" d="M596.419,61.233V34.867h8.811a11.817,11.817,0,0,1,4.828.711,5.47,5.47,0,0,1,2.38,2.464,8.844,8.844,0,0,1,.931,4.2,8.071,8.071,0,0,1-1.422,4.982A6.272,6.272,0,0,1,607.9,49.6a10.677,10.677,0,0,1,2.224,2.2,31.535,31.535,0,0,1,2.4,4.289l2.518,5.144h-4.993L607.02,55.5A38.14,38.14,0,0,0,604.8,51.6a3.32,3.32,0,0,0-1.242-1.079,5.461,5.461,0,0,0-2.1-.3h-.862V61.233Zm4.173-15.215h3.1a14.907,14.907,0,0,0,3.621-.261,2.334,2.334,0,0,0,1.259-1.052,4.011,4.011,0,0,0,.482-2.1,3.751,3.751,0,0,0-.482-2.023,2.479,2.479,0,0,0-1.311-1.052,15.916,15.916,0,0,0-3.4-.2h-3.276Z" transform="translate(-552.242 -34.867)" fill="#00539f"></path><path id="Tracé_67" data-name="Tracé 67" d="M685.624,61.273V34.886H689.8V61.273Z" transform="translate(-620.687 -34.882)" fill="#00539f"></path><path id="Tracé_68" data-name="Tracé 68" d="M716.224,52.518l4.087-.487q.689,4.891,4.518,4.891a4.236,4.236,0,0,0,2.983-1,3.235,3.235,0,0,0,1.086-2.48,2.744,2.744,0,0,0-.379-1.479,2.8,2.8,0,0,0-1.156-1,32.069,32.069,0,0,0-3.759-1.313,12.666,12.666,0,0,1-3.914-1.773,6.715,6.715,0,0,1-1.974-2.513,7.759,7.759,0,0,1-.733-3.348,7.522,7.522,0,0,1,.94-3.757,6.167,6.167,0,0,1,2.6-2.522,8.856,8.856,0,0,1,4.086-.852,7.829,7.829,0,0,1,5.708,2,8.023,8.023,0,0,1,2.173,5.727l-4.19.226a4.593,4.593,0,0,0-1.19-2.872,3.775,3.775,0,0,0-2.6-.818,4.158,4.158,0,0,0-2.6.711,2.163,2.163,0,0,0-.914,1.77,2.221,2.221,0,0,0,.829,1.752,11.7,11.7,0,0,0,3.812,1.565,15.581,15.581,0,0,1,4.559,1.941,6.6,6.6,0,0,1,2.145,2.628,9.3,9.3,0,0,1,.741,3.907,8.069,8.069,0,0,1-2.026,5.586q-2.027,2.262-6.337,2.262Q717.086,61.273,716.224,52.518Z" transform="translate(-644.165 -34.882)" fill="#00539f"></path></g><path id="Tracé_89" data-name="Tracé 89" d="M0,0H89.033V13.193H0Z" transform="translate(123.303 100.841)" fill="#e2001a"></path><g id="Groupe_8" data-name="Groupe 8" transform="translate(37.539 34.871)"><g id="Groupe_5" data-name="Groupe 5" transform="translate(0 0)"><g id="Groupe_4" data-name="Groupe 4"><path id="Tracé_69" data-name="Tracé 69" d="M37.539,114.049V34.886H116.7v79.163" transform="translate(-37.539 -34.886)" fill="#00539f"></path><g id="Groupe_3" data-name="Groupe 3" transform="translate(12.301 6.564)"><path id="Tracé_70" data-name="Tracé 70" d="M144.911,63.5l.044-.38C117.273,62.177,91.147,83,90.394,108.173c.572,14.382,8.892,21.012,18.786,20.965,14.2,0,23-6.255,23-6.255l-1.995-3.823s-8.372,5.018-17.269,5.4-19.5-7.007-17.417-21.774c1.512-12.493,16.852-36.726,49.408-39.187" transform="translate(-90.394 -63.089)" fill="#e2001a"></path><path id="Tracé_71" data-name="Tracé 71" d="M187.939,107.974s-14.767,2.084-16.088,7.564a3.812,3.812,0,0,0,.754,3.6,13.024,13.024,0,0,0,2.176,2.367c.286.284,3.085,2.119,1.851,3.286a29.17,29.17,0,0,1-2.605,1.63c-.565.384-8.328,3.792-10.028,4.642s-7.092,4.482-7.289,6.438a3.493,3.493,0,0,0,.471,2.367,9.494,9.494,0,0,0,3.123,2.175c1.324.567,3.123,1.988,2.267,2.648a32.766,32.766,0,0,1-3.309,1.9c-1.132.664-8.42,4.066-9.082,7.471,0,0,5.771-5.96,12.492-7.1,1.134-.374,3.029-1.226,3.124-2.557a2.518,2.518,0,0,0-1.892-2.64c-1.232-.476-4.45-1.526-4.264-3.515a5.044,5.044,0,0,1,2.276-3.116A82.408,82.408,0,0,1,172.8,129.27c1.894-.851,7.784-2.985,7.661-5.209a3.087,3.087,0,0,0-1.414-2.464c-1.167-.933-5.4-3.407-4.831-5.484.189-.947.852-2.365,3.218-3.7a54.42,54.42,0,0,1,10.6-4.065Z" transform="translate(-136.266 -97.528)" fill="#e2001a"></path></g></g></g><g id="Groupe_6" data-name="Groupe 6" transform="translate(85.776 32.988)"><path id="Tracé_72" data-name="Tracé 72" d="M406.1,176.63h8.58a13.2,13.2,0,0,1,4.941.647,5.485,5.485,0,0,1,2.408,2.281,7.457,7.457,0,0,1,.14,7.138,5.529,5.529,0,0,1-2.183,2.272,5.788,5.788,0,0,1,2.981,2.335,7.21,7.21,0,0,1,1.077,4.022,8.332,8.332,0,0,1-1.372,4.858,5.636,5.636,0,0,1-3.243,2.452,33.34,33.34,0,0,1-6.041.323H406.1Zm4.312,4.382V187.1h2.851a31.327,31.327,0,0,0,3.172-.09,2.7,2.7,0,0,0,1.729-.943,3.183,3.183,0,0,0,.624-2.074,3.243,3.243,0,0,0-.508-1.895,2.123,2.123,0,0,0-1.229-.907,26.064,26.064,0,0,0-4.143-.179Zm0,10.469V198.5h4.017a12.494,12.494,0,0,0,3.392-.278,2.528,2.528,0,0,0,1.259-1.093,3.847,3.847,0,0,0,.509-2.069,3.805,3.805,0,0,0-.545-2.122,2.787,2.787,0,0,0-1.446-1.147,13.686,13.686,0,0,0-3.687-.313Z" transform="translate(-406.102 -176.63)" fill="#00539f"></path><path id="Tracé_73" data-name="Tracé 73" d="M517.962,202.956h-4.688l-1.876-5.962h-8.574l-1.771,5.962h-4.6L504.8,176.63h4.58Zm-7.957-10.416-2.957-9.769-2.9,9.769Z" transform="translate(-475.427 -176.63)" fill="#00539f"></path><path id="Tracé_74" data-name="Tracé 74" d="M605.719,202.956V176.63h4.205l8.767,17.581V176.63h4.027v26.326H618.37l-8.624-17.168v17.168Z" transform="translate(-559.262 -176.63)" fill="#00539f"></path><path id="Tracé_75" data-name="Tracé 75" d="M705.413,202.956V176.63h4.312v11.719l8.756-11.719h5.828l-8.077,10.261,8.5,16.066h-5.6l-5.91-12.371L709.725,195v7.955Z" transform="translate(-635.754 -176.63)" fill="#00539f"></path></g><g id="Groupe_7" data-name="Groupe 7" transform="translate(89.065 69.155)"><path id="Tracé_76" data-name="Tracé 76" d="M421.752,332.5v6.6h-1.516v-6.6Z" transform="translate(-420.236 -332.389)" fill="#fff"></path><path id="Tracé_77" data-name="Tracé 77" d="M436.243,339.1v-6.6h1.764l1.387,2.419a19.008,19.008,0,0,1,1.09,2.262h.03a24.19,24.19,0,0,1-.129-2.751V332.5h1.387v6.6h-1.585l-1.427-2.546a24.354,24.354,0,0,1-1.159-2.33l-.03.01c.04.871.059,1.8.059,2.878V339.1Z" transform="translate(-432.518 -332.389)" fill="#fff"></path><path id="Tracé_78" data-name="Tracé 78" d="M469.115,333.75h-1.793V332.5h5.132v1.253h-1.823V339.1h-1.516Z" transform="translate(-456.364 -332.389)" fill="#fff"></path><path id="Tracé_79" data-name="Tracé 79" d="M500.67,336.306h-2.457v1.566h2.744V339.1H496.7v-6.6h4.122v1.224h-2.606v1.371h2.457Z" transform="translate(-478.902 -332.389)" fill="#fff"></path><path id="Tracé_80" data-name="Tracé 80" d="M523.3,332.424a13.412,13.412,0,0,1,2.011-.137,3.438,3.438,0,0,1,2.16.519,1.667,1.667,0,0,1,.614,1.381,1.754,1.754,0,0,1-1.179,1.625v.029a1.666,1.666,0,0,1,.892,1.234c.208.744.416,1.606.545,1.86H526.8a8.2,8.2,0,0,1-.466-1.537c-.178-.822-.466-1.048-1.08-1.058H524.8v2.595h-1.5Zm1.5,2.84h.594c.753,0,1.2-.372,1.2-.95,0-.607-.416-.91-1.11-.92a3.814,3.814,0,0,0-.684.049Z" transform="translate(-499.318 -332.228)" fill="#fff"></path><path id="Tracé_81" data-name="Tracé 81" d="M552.425,339.1v-6.6h1.764l1.387,2.419a19.015,19.015,0,0,1,1.09,2.262h.03a24.175,24.175,0,0,1-.129-2.751V332.5h1.387v6.6h-1.585l-1.427-2.546a24.3,24.3,0,0,1-1.159-2.33l-.03.01c.04.871.059,1.8.059,2.878V339.1Z" transform="translate(-521.661 -332.389)" fill="#fff"></path><path id="Tracé_82" data-name="Tracé 82" d="M585.629,337.4l-.475,1.694h-1.566l2.041-6.6h1.981l2.071,6.6h-1.625l-.515-1.694Zm1.694-1.116-.416-1.4c-.119-.392-.238-.881-.337-1.273h-.02c-.1.392-.2.891-.307,1.273l-.4,1.4Z" transform="translate(-545.571 -332.389)" fill="#fff"></path><path id="Tracé_83" data-name="Tracé 83" d="M613.566,333.75h-1.793V332.5h5.132v1.253h-1.823V339.1h-1.516Z" transform="translate(-567.197 -332.389)" fill="#fff"></path><path id="Tracé_84" data-name="Tracé 84" d="M642.664,332.5v6.6h-1.516v-6.6Z" transform="translate(-589.735 -332.389)" fill="#fff"></path><path id="Tracé_85" data-name="Tracé 85" d="M662.255,335.374a3.163,3.163,0,0,1-3.28,3.476,3.092,3.092,0,0,1-3.141-3.358,3.211,3.211,0,0,1,3.25-3.456A3.091,3.091,0,0,1,662.255,335.374Zm-4.825.088c0,1.292.614,2.2,1.625,2.2s1.605-.959,1.605-2.242c0-1.185-.575-2.2-1.615-2.2C658.025,333.22,657.43,334.179,657.43,335.462Z" transform="translate(-601.004 -332.035)" fill="#fff"></path><path id="Tracé_86" data-name="Tracé 86" d="M691.554,339.1v-6.6h1.764l1.387,2.419a19.005,19.005,0,0,1,1.09,2.262h.03a24.175,24.175,0,0,1-.129-2.751V332.5h1.387v6.6H695.5l-1.427-2.546a24.3,24.3,0,0,1-1.159-2.33l-.03.01c.04.871.059,1.8.059,2.878V339.1Z" transform="translate(-628.41 -332.389)" fill="#fff"></path><path id="Tracé_87" data-name="Tracé 87" d="M724.759,337.4l-.475,1.694h-1.566l2.041-6.6h1.981l2.071,6.6h-1.625l-.515-1.694Zm1.694-1.116-.416-1.4c-.119-.392-.238-.881-.337-1.273h-.02c-.1.392-.2.891-.307,1.273l-.4,1.4Z" transform="translate(-652.321 -332.389)" fill="#fff"></path><path id="Tracé_88" data-name="Tracé 88" d="M756.606,332.5h1.516v5.346h2.655V339.1h-4.171Z" transform="translate(-678.323 -332.389)" fill="#fff"></path></g></g></g></svg> 